<svg width="664" height="664" xmlns="http://www.w3.org/2000/svg" xmlns:xlink="http://www.w3.org/1999/xlink" overflow="hidden"><defs><clipPath id="clip0"><rect x="308" y="28" width="664" height="664"/></clipPath><clipPath id="clip1"><rect x="460" y="55" width="360" height="610"/></clipPath><clipPath id="clip2"><rect x="460" y="55" width="360" height="611"/></clipPath><clipPath id="clip3"><rect x="460" y="55" width="360" height="611"/></clipPath><clipPath id="clip4"><rect x="460" y="55" width="360" height="611"/></clipPath></defs><g clip-path="url(#clip0)" transform="translate(-308 -28)"><path d="M308 360C308 176.641 456.641 28 640 28 823.359 28 972 176.641 972 360 972 543.359 823.359 692 640 692 456.641 692 308 543.359 308 360Z" fill="#FFC000" fill-rule="evenodd"/><g clip-path="url(#clip1)"><g clip-path="url(#clip2)"><g clip-path="url(#clip3)"><g clip-path="url(#clip4)"><path d="M-214.074 0C-114.663 0-34.0741 80.6007-34.0741 180.027-34.0741 220.419-47.3744 257.704-69.8337 287.74L-71.5763 289.957-214.074 609.259-356.573 289.957-358.314 287.74C-380.774 257.704-394.074 220.419-394.074 180.027-394.074 80.6007-313.485 0-214.074 0ZM-214.074 85.0226C-266.536 85.0226-309.064 127.557-309.064 180.027-309.064 232.496-266.536 275.031-214.074 275.031-161.613 275.031-119.084 232.496-119.084 180.027-119.084 127.557-161.613 85.0226-214.074 85.0226Z" fill="#0986F7" fill-rule="evenodd" transform="matrix(1 0 0 1.00122 854.074 55)"/></g></g></g></g></g></svg>