<svg width="488" height="528" xmlns="http://www.w3.org/2000/svg" xmlns:xlink="http://www.w3.org/1999/xlink" overflow="hidden"><defs><clipPath id="clip0"><rect x="-248" y="-146" width="488" height="528"/></clipPath></defs><g clip-path="url(#clip0)" transform="translate(248 146)"><path d="M-152.304-131.314 113.271-131.314 157.521-71.7104 157.521 305.253C157.521 320.992 144.762 333.75 129.024 333.75L-152.304 333.75C-168.042 333.75-180.801 320.991-180.8 305.253L-180.801-102.817C-180.801-118.556-168.042-131.314-152.304-131.314Z" stroke="#FE2E2E" stroke-width="29.3333" stroke-miterlimit="8" fill="#FFFFFF" fill-rule="evenodd"/><rect x="-248" y="-90" width="366" height="169" fill="#FE2E2E"/><path d="M-71.0106-50.5279C-74.6896-50.5279-78.1846-50.1599-81.4958-49.424L-81.4958 37.424C-78.1846 38.16-74.6896 38.528-71.0106 38.528-58.6284 38.6545-49.4539 35.0435-43.487 27.695-37.52 20.3465-34.5538 8.50156-34.5883-7.83995-34.5768-22.4986-37.589-33.2933-43.6249-40.224-49.6607-47.1546-58.7893-50.5892-71.0106-50.5279ZM-187.691-51.264C-191.738-51.264-195.601-50.8959-199.28-50.1599L-199.28-6.91995C-195.417-6.33727-191.554-6.03061-187.691-5.99995-178.808-6.0536-171.971-8.1083-167.181-12.1639-162.39-16.2196-159.968-21.9543-159.915-29.3679-159.884-43.9346-169.143-51.2332-187.691-51.264ZM14.9345-73.1599 99-73.1599 99-47.9519 46.2061-47.9519 46.2061-17.4079 95.321-17.4079 95.321 6.14409 46.2061 6.14409 46.2061 61.16 14.9345 61.16ZM-73.4019-74.9999C-51.3087-74.8811-34.3776-69.0467-22.6085-57.4969-10.8395-45.9471-4.89946-29.3948-4.78833-7.83995-4.89946 15.4781-10.8395 33.1039-22.6085 45.0371-34.3776 56.9702-51.3087 62.9578-73.4019 63-87.0143 63-99.8909 62.08-112.032 60.24L-112.032-72.2399C-99.8909-74.0799-87.0143-74.9999-73.4019-74.9999ZM-189.531-74.9999C-150.319-75.0305-130.697-60.4332-130.667-31.2079-130.705-15.3533-135.273-3.36257-144.371 4.76403-153.469 12.8907-166.867 16.9694-184.564 17-189.01 17.0307-193.915 16.7853-199.28 16.2641L-199.28 61.16-230 61.16-230-72.2399C-217.338-74.0799-203.848-74.9999-189.531-74.9999Z" fill="#FFFFFF" fill-rule="evenodd"/><path d="M-195 132-248 79-195 79Z" fill="#D01C1D" fill-rule="evenodd"/><path d="M-16 225.5 39.0242 225.5 39.0242 106 119.976 106 119.976 225.5 175 225.5 79.5001 321Z" stroke="#FFFFFF" stroke-width="31.6667" stroke-linecap="round" stroke-miterlimit="8" fill="#FE2E2E" fill-rule="evenodd"/><path d="M-58 342 199.292 342" stroke="#FFFFFF" stroke-width="79.6667" stroke-linecap="round" stroke-miterlimit="8" fill="none" fill-rule="evenodd"/><path d="M199 277 199 341.871" stroke="#FFFFFF" stroke-width="79.6667" stroke-linecap="round" stroke-miterlimit="8" fill="none" fill-rule="evenodd"/><path d="M-58 277-57.9999 341.871" stroke="#FFFFFF" stroke-width="79.6667" stroke-linecap="round" stroke-miterlimit="8" fill="none" fill-rule="evenodd"/><path d="M-16 225.5 39.0242 225.5 39.0242 106 119.976 106 119.976 225.5 175 225.5 79.5001 321Z" fill="#FE2E2E" fill-rule="evenodd"/><path d="M-57.5001 342.5 199.792 342.5" stroke="#FE2E2E" stroke-width="34.6667" stroke-linecap="round" stroke-miterlimit="8" fill="none" fill-rule="evenodd"/><path d="M200.5 277.5 200.5 342.371" stroke="#FE2E2E" stroke-width="34.6667" stroke-linecap="round" stroke-miterlimit="8" fill="none" fill-rule="evenodd"/><path d="M-57.5001 277.5-57.4999 342.371" stroke="#FE2E2E" stroke-width="34.6667" stroke-linecap="round" stroke-miterlimit="8" fill="none" fill-rule="evenodd"/></g></svg>