<svg width="3584" height="1922" xmlns="http://www.w3.org/2000/svg" xmlns:xlink="http://www.w3.org/1999/xlink" overflow="hidden"><defs><clipPath id="clip0"><rect x="0" y="0" width="3584" height="1922"/></clipPath><clipPath id="clip1"><rect x="228" y="139" width="604" height="1022"/></clipPath><clipPath id="clip2"><rect x="228" y="139" width="604" height="1022"/></clipPath><clipPath id="clip3"><rect x="228" y="139" width="604" height="1022"/></clipPath><clipPath id="clip4"><rect x="228" y="139" width="605" height="1022"/></clipPath><clipPath id="clip5"><rect x="219" y="129" width="604" height="1022"/></clipPath><clipPath id="clip6"><rect x="219" y="129" width="604" height="1022"/></clipPath><clipPath id="clip7"><rect x="219" y="129" width="604" height="1022"/></clipPath><clipPath id="clip8"><rect x="219" y="129" width="605" height="1022"/></clipPath></defs><g clip-path="url(#clip0)"><rect x="0" y="1309" width="3584" height="613" fill="#0986F7"/><rect x="0" y="0" width="3584" height="1309" fill="#FFC000"/><path d="M2198 1844.2 2157.57 1803.82 2193.2 1791C2195.03 1790.37 2196 1788.38 2195.37 1786.55 2195.02 1785.53 2194.22 1784.73 2193.2 1784.38L2090.55 1750.18C2090.18 1750.06 2089.8 1750 2089.41 1750L2089.41 1750C2087.48 1750.04 2085.96 1751.63 2086 1753.55 2086.01 1753.91 2086.07 1754.26 2086.19 1754.6L2120.33 1857.28C2120.97 1859.1 2122.97 1860.06 2124.8 1859.41 2125.8 1859.06 2126.58 1858.28 2126.93 1857.28L2139.78 1821.64 2180.17 1862Z" fill="#FFFFFF" fill-rule="evenodd"/><path d="M1763.55 1784.84C1767.03 1791.89 1770.78 1801.13 1774.81 1812.54L1759.99 1818.25C1758.81 1814.52 1757.01 1809.51 1754.6 1803.21 1752.19 1796.9 1750.31 1792.53 1748.96 1790.07ZM1819.4 1781.75 1836.47 1787.21C1835.37 1790.31 1834.38 1793.28 1833.51 1796.13 1829.72 1810.64 1824.22 1822.53 1817.03 1831.8 1806.28 1845.75 1792.72 1855.82 1776.36 1862L1763.67 1849.04C1770.86 1847.14 1778.17 1843.93 1785.6 1839.41 1793.04 1834.89 1799.16 1829.62 1803.98 1823.6 1808.09 1818.44 1811.53 1812.1 1814.3 1804.57 1817.07 1797.04 1818.77 1789.43 1819.4 1781.75ZM1791.65 1778.42C1796.08 1788.64 1799.4 1797.52 1801.61 1805.05L1787.03 1810.16C1786.32 1807.15 1784.87 1802.67 1782.7 1796.73 1780.53 1790.78 1778.69 1786.26 1777.19 1783.17ZM1577.62 1757.49 1595.41 1757.49C1595.17 1760.26 1595.05 1763.32 1595.05 1766.65L1595.05 1807.9C1595.05 1812.1 1595.17 1815.63 1595.41 1818.48L1577.5 1818.48C1577.5 1818.01 1577.56 1817.08 1577.68 1815.69 1577.8 1814.3 1577.9 1812.92 1577.98 1811.53 1578.06 1810.14 1578.09 1808.89 1578.09 1807.78L1578.09 1766.65C1578.09 1763 1577.94 1759.95 1577.62 1757.49ZM1633.47 1756.3 1651.38 1756.3C1651.06 1760.9 1650.9 1764.98 1650.9 1768.55L1650.9 1792.68C1650.9 1805.05 1649.77 1814.68 1647.52 1821.58 1645.27 1828.47 1641.69 1834.61 1636.79 1840 1629.83 1847.69 1620.03 1853.56 1607.38 1857.6L1594.58 1844.28C1607.86 1841.11 1617.78 1836 1624.34 1828.95 1628.29 1824.51 1630.92 1819.67 1632.23 1814.44 1633.53 1809.21 1634.18 1801.6 1634.18 1791.61L1634.18 1768.55C1634.18 1763.79 1633.94 1759.71 1633.47 1756.3ZM1958.61 1750 1976.4 1755.83C1973.79 1759.63 1971.3 1763.79 1968.93 1768.31L1968.57 1768.9 1993 1768.9C1996.79 1768.9 2000.31 1768.43 2003.55 1767.48L2016 1775.09C2014.1 1778.34 2012.76 1781.27 2011.97 1783.89 2007.23 1799.26 2000.19 1812.82 1990.86 1824.55 1979 1839.13 1962.64 1850.59 1941.77 1858.91L1927.42 1845.95C1938.96 1842.54 1948.53 1838.36 1956.12 1833.41 1963.71 1828.45 1970.47 1822.61 1976.4 1815.87 1980.43 1811.27 1984.04 1805.78 1987.25 1799.4 1990.45 1793.02 1992.56 1787.45 1993.59 1782.7L1959.44 1782.7C1950.35 1794.43 1940.15 1804.22 1928.85 1812.06L1915.33 1801.96C1931.06 1792.29 1943.67 1779.25 1953.15 1762.84 1955.76 1758.32 1957.58 1754.04 1958.61 1750ZM1429.28 1750 1447.07 1755.83C1444.46 1759.63 1441.97 1763.79 1439.6 1768.31L1439.24 1768.9 1463.67 1768.9C1467.46 1768.9 1470.98 1768.43 1474.22 1767.48L1486.67 1775.09C1484.77 1778.34 1483.43 1781.27 1482.64 1783.89 1477.9 1799.26 1470.86 1812.82 1461.53 1824.55 1449.68 1839.13 1433.31 1850.59 1412.44 1858.91L1398.09 1845.95C1409.64 1842.54 1419.2 1838.36 1426.79 1833.41 1434.38 1828.45 1441.14 1822.61 1447.07 1815.87 1451.1 1811.27 1454.72 1805.78 1457.92 1799.4 1461.12 1793.02 1463.23 1787.45 1464.26 1782.7L1430.11 1782.7C1421.02 1794.43 1410.82 1804.22 1399.52 1812.06L1386 1801.96C1401.73 1792.29 1414.34 1779.25 1423.83 1762.84 1426.43 1758.32 1428.25 1754.04 1429.28 1750Z" fill="#FFFFFF" fill-rule="evenodd"/><path d="M1763.05 1458.48 1749.97 1521.94 1779.31 1521.94 1766.23 1458.48ZM2203.53 1437.76 2203.53 1490.05 2220.75 1490.05C2226.91 1490.05 2231.54 1488.4 2234.62 1485.11 2237.7 1481.81 2239.24 1476.66 2239.24 1469.64L2239.24 1458.16C2239.24 1451.15 2237.7 1445.99 2234.62 1442.7 2231.54 1439.4 2226.91 1437.76 2220.75 1437.76ZM2543.21 1385.46 2783 1385.46 2783 1462.63 2728.15 1462.63 2728.15 1437.76 2707.75 1437.76 2707.75 1581.24 2730.07 1581.24 2730.07 1633.54 2596.14 1633.54 2596.14 1581.24 2618.46 1581.24 2618.46 1437.76 2598.05 1437.76 2598.05 1462.63 2543.21 1462.63ZM2098.3 1385.46 2244.66 1385.46C2272.09 1385.46 2293.03 1391.1 2307.48 1402.36 2321.94 1413.63 2329.17 1431.91 2329.17 1457.21 2329.17 1471.45 2326.3 1483.78 2320.56 1494.19 2314.82 1504.61 2306.63 1511.84 2296 1515.88L2296.32 1519.07C2316.73 1522.25 2326.93 1534.8 2326.93 1556.69L2326.93 1581.24 2341.92 1581.24 2341.92 1633.54 2240.84 1633.54 2240.84 1558.6C2240.84 1550.31 2239.62 1544.04 2237.17 1539.79 2234.73 1535.54 2230.9 1532.67 2225.69 1531.18 2220.48 1529.69 2213.1 1528.95 2203.53 1528.95L2203.53 1581.24 2224.58 1581.24 2224.58 1633.54 2098.3 1633.54 2098.3 1581.24 2114.25 1581.24 2114.25 1437.76 2098.3 1437.76ZM1714.58 1385.46 1830.65 1385.46 1884.54 1581.24 1897.29 1581.24 1897.29 1633.54 1772.29 1633.54 1772.29 1581.24 1791.43 1581.24 1786.32 1555.73 1742.96 1555.73 1737.85 1581.24 1756.99 1581.24 1756.99 1633.54 1647.93 1633.54 1647.93 1581.24 1660.69 1581.24ZM1208.75 1385.46 1448.54 1385.46 1448.54 1462.63 1393.69 1462.63 1393.69 1437.76 1373.29 1437.76 1373.29 1581.24 1395.61 1581.24 1395.61 1633.54 1261.68 1633.54 1261.68 1581.24 1284 1581.24 1284 1437.76 1263.59 1437.76 1263.59 1462.63 1208.75 1462.63ZM908.141 1381C926.635 1381 944.014 1382.86 960.276 1386.58 976.538 1390.3 989.665 1395.24 999.657 1401.41L999.657 1458.48 935.882 1458.48C935.882 1447.85 929.292 1442.54 916.112 1442.54 909.735 1442.54 905.218 1443.34 902.56 1444.93 899.903 1446.53 898.574 1449.34 898.574 1453.38 898.574 1456.99 900.116 1459.86 903.198 1461.99 906.281 1464.12 911.329 1466.35 918.344 1468.69L946.086 1478.25C968.62 1485.9 985.042 1495.84 995.352 1508.07 1005.66 1520.29 1010.82 1536.28 1010.82 1556.05 1010.82 1583.05 1001.73 1603.46 983.554 1617.27 965.378 1631.09 938.752 1638 903.676 1638 883.269 1638 863.977 1636.25 845.801 1632.74 827.626 1629.23 813.649 1625.25 803.87 1620.78L803.87 1557.65 874.021 1557.65C874.021 1564.24 875.509 1569.02 878.486 1572 881.462 1574.97 886.883 1576.46 894.748 1576.46 901.338 1576.46 906.068 1575.45 908.938 1573.43 911.808 1571.41 913.243 1568.38 913.243 1564.34 913.243 1560.94 911.861 1558.02 909.097 1555.58 906.334 1553.13 901.551 1550.63 894.748 1548.08L867.325 1538.52C843.729 1529.59 826.775 1519.07 816.465 1506.95 806.155 1494.83 801 1478.46 801 1457.84 801 1432.76 809.237 1413.68 825.712 1400.61 842.187 1387.54 869.664 1381 908.141 1381Z" fill="#FFFFFF" fill-rule="evenodd"/><g clip-path="url(#clip1)"><g clip-path="url(#clip2)"><g clip-path="url(#clip3)"><g clip-path="url(#clip4)"><path d="M-359.098 0C-192.341 0-57.1575 135.203-57.1575 301.985-57.1575 369.74-79.4681 432.284-117.142 482.668L-120.065 486.388-359.098 1022-598.132 486.387-601.053 482.668C-638.728 432.284-661.038 369.74-661.038 301.985-661.038 135.203-525.855 0-359.098 0ZM-359.098 142.621C-447.099 142.621-518.439 213.971-518.439 301.985-518.439 390-447.099 461.35-359.098 461.35-271.097 461.35-199.757 390-199.757 301.985-199.757 213.971-271.097 142.621-359.098 142.621Z" fill-rule="evenodd" transform="matrix(1.0002 0 0 1 889.169 139)"/></g></g></g></g><g clip-path="url(#clip5)"><g clip-path="url(#clip6)"><g clip-path="url(#clip7)"><g clip-path="url(#clip8)"><path d="M-359.098 0C-192.341 0-57.1575 135.203-57.1575 301.985-57.1575 369.74-79.4681 432.284-117.142 482.668L-120.065 486.388-359.098 1022-598.132 486.387-601.053 482.668C-638.728 432.284-661.038 369.74-661.038 301.985-661.038 135.203-525.855 0-359.098 0ZM-359.098 142.621C-447.099 142.621-518.439 213.971-518.439 301.985-518.439 390-447.099 461.35-359.098 461.35-271.097 461.35-199.757 390-199.757 301.985-199.757 213.971-271.097 142.621-359.098 142.621Z" fill="#0986F7" fill-rule="evenodd" transform="matrix(1.0002 0 0 1 880.169 129)"/></g></g></g></g><path d="M2034.87 909.523 2422.09 909.523 2422.09 977.382 2034.87 977.382ZM2695.53 735.884 2775.37 757.838C2740.77 853.639 2702.85 948.775 2661.6 1043.24 2724.14 1039.25 2780.03 1032.6 2829.26 1023.29 2811.96 994.014 2794 966.072 2775.37 939.461L2835.25 897.548C2868.51 944.118 2909.1 1009.32 2957 1093.14L2891.13 1135.05 2867.18 1093.14C2778.03 1106.45 2670.25 1117.76 2543.84 1127.07L2527.87 1053.22 2577.77 1051.23C2620.35 959.419 2659.6 854.304 2695.53 735.884ZM1833.28 729.896 1879.19 785.78 1841.26 811.726 1797.35 755.842ZM1639.67 725.905 1713.52 747.859C1705.54 771.809 1693.56 799.751 1677.59 831.685L1921.1 831.685 1921.1 897.548 1803.34 897.548C1798.02 1025.28 1748.12 1113.1 1653.64 1161L1599.75 1107.11C1686.24 1063.2 1728.82 993.349 1727.49 897.548L1643.66 897.548C1614.39 944.118 1587.78 979.378 1563.82 1003.33L1501.95 951.436C1560.5 895.552 1606.4 820.375 1639.67 725.905ZM1907.13 719.917 1949.04 773.805 1911.12 801.747 1871.2 747.859ZM1493.47 312.639 1493.47 394.469 1557.34 394.469 1557.34 312.639ZM2006.43 276.714 2006.43 298.668 2084.27 298.668 2084.27 276.714ZM1856.73 276.714 1856.73 298.668 1934.57 298.668 1934.57 276.714ZM3134.14 262.743C3128.82 290.685 3118.84 315.3 3104.2 336.589 3088.23 364.531 3072.93 386.485 3058.3 402.452 3078.25 413.097 3099.54 427.733 3122.17 446.361L3082.25 508.232C3050.31 481.621 3025.03 464.323 3006.4 456.34 2998.42 464.323 2984.44 474.303 2964.49 486.278 2941.86 499.583 2923.24 508.232 2908.6 512.224L3134.14 512.224ZM3008.4 216.838C3012.39 219.499 3019.71 230.809 3030.35 250.768 3039.67 270.726 3045.65 284.032 3048.32 290.685 3057.63 278.709 3065.61 258.751 3072.27 230.809L3134.14 252.763 3134.14 216.838ZM2852.71 216.838 2852.71 512.224 2890.63 512.224 2860.7 452.348C2872.67 449.687 2887.31 444.365 2904.61 436.382 2921.9 428.398 2932.55 421.745 2936.54 416.423 2920.57 403.117 2896.62 391.142 2864.69 380.498L2900.61 324.614C2899.28 317.961 2893.3 305.986 2882.65 288.689 2872.01 272.722 2864.02 262.077 2858.7 256.755L2914.59 230.809C2927.89 244.115 2943.19 268.065 2960.49 302.66L2906.6 326.61C2923.9 330.602 2953.84 344.573 2996.42 368.523 3003.07 363.201 3011.72 352.556 3022.37 336.589 3033.01 320.622 3040.33 307.982 3044.32 298.668L2992.43 322.618C2991.1 311.974 2985.11 297.337 2974.46 278.709 2965.15 261.412 2957.17 248.772 2950.51 240.788L3000.41 216.838ZM2006.43 212.846 2006.43 230.809 2084.27 230.809 2084.27 212.846ZM1856.73 212.846 1856.73 230.809 1934.57 230.809 1934.57 212.846ZM1784.88 152.971 2156.12 152.971 2156.12 362.535 2104.23 362.535C2108.22 370.519 2120.2 379.832 2140.16 390.477 2162.78 402.452 2185.4 411.766 2208.02 418.419L2182.07 488.274C2139.49 473.637 2106.22 455.675 2082.27 434.386L2082.27 598.045 2012.41 598.045 2012.41 390.477 2034.37 390.477C2029.05 386.485 2019.07 377.171 2004.43 362.535L1944.55 362.535C1936.57 370.519 1925.26 379.832 1910.62 390.477L1952.54 390.477C1952.54 435.716 1945.22 475.633 1930.58 510.228 1911.95 554.137 1870.7 586.07 1806.83 606.029L1758.93 540.166C1797.52 530.852 1826.13 517.546 1844.75 500.249 1867.38 480.29 1879.35 452.348 1880.68 416.423 1874.03 425.737 1860.06 437.712 1838.77 452.348 1814.81 468.315 1793.52 480.29 1774.9 488.274L1736.97 422.411C1760.92 414.427 1784.21 403.783 1806.83 390.477 1826.79 378.502 1838.77 369.188 1842.76 362.535L1784.88 362.535ZM2782.85 146.983 3204 146.983 3204 600.041 3134.14 600.041 3134.14 582.079 2852.71 582.079 2852.71 600.041 2782.85 600.041ZM1293.87 142.992 1363.73 142.992 1363.73 248.772 1421.61 248.772 1421.61 142.992 1493.47 142.992 1493.47 248.772 1557.34 248.772 1557.34 142.992 1629.19 142.992 1629.19 248.772 1689.07 248.772 1689.07 312.639 1629.19 312.639 1629.19 478.294 1557.34 478.294 1557.34 460.332 1493.47 460.332 1493.47 478.294 1421.61 478.294 1421.61 312.639 1363.73 312.639 1363.73 512.224 1665.12 512.224 1665.12 576.091 1363.73 576.091 1363.73 598.045 1293.87 598.045 1293.87 312.639 1230 312.639 1230 248.772 1293.87 248.772ZM2523.38 139 2591.24 139 2591.24 234.801 2635.15 222.826 2635.15 216.838 2703.02 242.784 2699.02 386.485C2697.69 413.097 2692.37 429.064 2683.06 434.386 2675.07 441.039 2652.45 444.365 2615.19 444.365L2599.23 378.502 2613.2 378.502C2625.17 378.502 2631.16 371.849 2631.16 358.543L2633.16 294.676 2591.24 306.651 2591.24 506.236 2523.38 506.236 2523.38 324.614 2487.45 334.593 2487.45 508.232C2487.45 521.538 2493.44 528.191 2505.42 528.191L2633.16 528.191C2637.15 528.191 2640.48 521.538 2643.14 508.232 2644.47 497.588 2645.8 478.96 2647.13 452.348L2714.99 468.315C2714.99 520.207 2710.33 552.806 2701.02 566.112 2691.7 583.409 2675.74 592.058 2653.12 592.058L2477.47 592.058C2438.88 592.058 2419.59 576.091 2419.59 544.157L2419.59 356.548 2401.63 360.539 2399.63 332.597 2363.7 332.597 2363.7 456.34 2399.63 442.369 2411.61 502.245C2381 518.211 2331.77 536.174 2263.9 556.133L2249.93 488.274 2297.84 476.299 2297.84 332.597 2251.93 332.597 2251.93 268.73 2297.84 268.73 2297.84 150.975 2363.7 150.975 2363.7 268.73 2401.63 268.73 2401.63 286.693 2419.59 282.701 2419.59 182.909 2487.45 182.909 2487.45 264.739 2523.38 254.759Z" fill-rule="evenodd"/><path d="M2025.87 899.523 2413.09 899.523 2413.09 967.382 2025.87 967.382ZM2686.53 725.884 2766.37 747.838C2731.77 843.639 2693.85 938.775 2652.6 1033.24 2715.14 1029.25 2771.03 1022.6 2820.26 1013.29 2802.96 984.014 2785 956.072 2766.37 929.461L2826.25 887.548C2859.51 934.118 2900.1 999.315 2948 1083.14L2882.13 1125.05 2858.18 1083.14C2769.03 1096.45 2661.25 1107.76 2534.84 1117.07L2518.87 1043.22 2568.77 1041.23C2611.35 949.419 2650.6 844.304 2686.53 725.884ZM1824.28 719.896 1870.19 775.78 1832.26 801.726 1788.35 745.842ZM1630.67 715.905 1704.52 737.859C1696.54 761.809 1684.56 789.751 1668.59 821.685L1912.1 821.685 1912.1 887.548 1794.34 887.548C1789.02 1015.28 1739.12 1103.1 1644.64 1151L1590.75 1097.11C1677.24 1053.2 1719.82 983.349 1718.49 887.548L1634.66 887.548C1605.39 934.118 1578.78 969.378 1554.82 993.328L1492.95 941.436C1551.5 885.552 1597.4 810.375 1630.67 715.905ZM1898.13 709.917 1940.04 763.805 1902.12 791.747 1862.2 737.859ZM1484.47 302.639 1484.47 384.469 1548.34 384.469 1548.34 302.639ZM1997.43 266.714 1997.43 288.668 2075.27 288.668 2075.27 266.714ZM1847.73 266.714 1847.73 288.668 1925.57 288.668 1925.57 266.714ZM3125.14 252.743C3119.82 280.685 3109.84 305.3 3095.2 326.589 3079.23 354.531 3063.93 376.485 3049.3 392.452 3069.25 403.097 3090.54 417.733 3113.17 436.361L3073.25 498.232C3041.31 471.621 3016.03 454.323 2997.4 446.34 2989.42 454.323 2975.44 464.303 2955.49 476.278 2932.86 489.583 2914.24 498.232 2899.6 502.224L3125.14 502.224ZM2999.4 206.838C3003.39 209.499 3010.71 220.809 3021.35 240.768 3030.67 260.726 3036.65 274.032 3039.32 280.685 3048.63 268.709 3056.61 248.751 3063.27 220.809L3125.14 242.763 3125.14 206.838ZM2843.71 206.838 2843.71 502.224 2881.63 502.224 2851.7 442.348C2863.67 439.687 2878.31 434.365 2895.61 426.382 2912.9 418.398 2923.55 411.745 2927.54 406.423 2911.57 393.117 2887.62 381.142 2855.69 370.498L2891.61 314.614C2890.28 307.961 2884.3 295.986 2873.65 278.689 2863.01 262.722 2855.02 252.077 2849.7 246.755L2905.59 220.809C2918.89 234.115 2934.19 258.065 2951.49 292.66L2897.6 316.61C2914.9 320.602 2944.84 334.573 2987.42 358.523 2994.07 353.201 3002.72 342.556 3013.37 326.589 3024.01 310.622 3031.33 297.982 3035.32 288.668L2983.43 312.618C2982.1 301.974 2976.11 287.337 2965.46 268.709 2956.15 251.412 2948.17 238.772 2941.51 230.788L2991.41 206.838ZM1997.43 202.846 1997.43 220.809 2075.27 220.809 2075.27 202.846ZM1847.73 202.846 1847.73 220.809 1925.57 220.809 1925.57 202.846ZM1775.88 142.971 2147.12 142.971 2147.12 352.535 2095.23 352.535C2099.22 360.519 2111.2 369.832 2131.16 380.477 2153.78 392.452 2176.4 401.766 2199.02 408.419L2173.07 478.274C2130.49 463.637 2097.22 445.675 2073.27 424.386L2073.27 588.045 2003.41 588.045 2003.41 380.477 2025.37 380.477C2020.05 376.485 2010.07 367.171 1995.43 352.535L1935.55 352.535C1927.57 360.519 1916.26 369.832 1901.62 380.477L1943.54 380.477C1943.54 425.716 1936.22 465.633 1921.58 500.228 1902.95 544.137 1861.7 576.07 1797.83 596.029L1749.93 530.166C1788.52 520.852 1817.13 507.546 1835.75 490.249 1858.38 470.29 1870.35 442.348 1871.68 406.423 1865.03 415.737 1851.06 427.712 1829.77 442.348 1805.81 458.315 1784.52 470.29 1765.9 478.274L1727.97 412.411C1751.92 404.427 1775.21 393.783 1797.83 380.477 1817.79 368.502 1829.77 359.188 1833.76 352.535L1775.88 352.535ZM2773.85 136.983 3195 136.983 3195 590.041 3125.14 590.041 3125.14 572.079 2843.71 572.079 2843.71 590.041 2773.85 590.041ZM1284.87 132.992 1354.73 132.992 1354.73 238.772 1412.61 238.772 1412.61 132.992 1484.47 132.992 1484.47 238.772 1548.34 238.772 1548.34 132.992 1620.19 132.992 1620.19 238.772 1680.07 238.772 1680.07 302.639 1620.19 302.639 1620.19 468.294 1548.34 468.294 1548.34 450.332 1484.47 450.332 1484.47 468.294 1412.61 468.294 1412.61 302.639 1354.73 302.639 1354.73 502.224 1656.12 502.224 1656.12 566.091 1354.73 566.091 1354.73 588.045 1284.87 588.045 1284.87 302.639 1221 302.639 1221 238.772 1284.87 238.772ZM2514.38 129 2582.24 129 2582.24 224.801 2626.15 212.826 2626.15 206.838 2694.02 232.784 2690.02 376.485C2688.69 403.097 2683.37 419.064 2674.06 424.386 2666.07 431.039 2643.45 434.365 2606.19 434.365L2590.23 368.502 2604.2 368.502C2616.17 368.502 2622.16 361.849 2622.16 348.543L2624.16 284.676 2582.24 296.651 2582.24 496.236 2514.38 496.236 2514.38 314.614 2478.45 324.593 2478.45 498.232C2478.45 511.538 2484.44 518.191 2496.42 518.191L2624.16 518.191C2628.15 518.191 2631.48 511.538 2634.14 498.232 2635.47 487.588 2636.8 468.96 2638.13 442.348L2705.99 458.315C2705.99 510.207 2701.33 542.806 2692.02 556.112 2682.7 573.409 2666.74 582.058 2644.12 582.058L2468.47 582.058C2429.88 582.058 2410.59 566.091 2410.59 534.157L2410.59 346.548 2392.63 350.539 2390.63 322.597 2354.7 322.597 2354.7 446.34 2390.63 432.369 2402.61 492.245C2372 508.211 2322.77 526.174 2254.9 546.133L2240.93 478.274 2288.84 466.299 2288.84 322.597 2242.93 322.597 2242.93 258.73 2288.84 258.73 2288.84 140.975 2354.7 140.975 2354.7 258.73 2392.63 258.73 2392.63 276.693 2410.59 272.701 2410.59 172.909 2478.45 172.909 2478.45 254.739 2514.38 244.759Z" fill="#FFFFFF" fill-rule="evenodd"/></g></svg>