<svg width="4610" height="660" xmlns="http://www.w3.org/2000/svg"
    xmlns:xlink="http://www.w3.org/1999/xlink" xml:space="preserve" overflow="hidden"><defs><clipPath id="clip0"><rect x="0" y="0" width="4610" height="660"/></clipPath><clipPath id="clip1"><rect x="0" y="0" width="391" height="660"/></clipPath><clipPath id="clip2"><rect x="0" y="0" width="391" height="660"/></clipPath><clipPath id="clip3"><rect x="0" y="0" width="391" height="660"/></clipPath><clipPath id="clip4"><rect x="0" y="0" width="391" height="660"/></clipPath></defs><g clip-path="url(#clip0)"><g clip-path="url(#clip1)"><g clip-path="url(#clip2)"><g clip-path="url(#clip3)"><g clip-path="url(#clip4)"><path d="M-231.903 0C-124.212 0-36.9119 87.3134-36.9119 195.02-36.9119 238.776-51.3199 279.166-75.6496 311.703L-77.5374 314.106-231.903 660-386.269 314.105-388.156 311.703C-412.486 279.166-426.894 238.776-426.894 195.02-426.894 87.3134-339.593 0-231.903 0ZM-231.903 92.1035C-288.733 92.1035-334.804 138.181-334.804 195.02-334.804 251.859-288.733 297.936-231.903 297.936-175.072 297.936-129.002 251.859-129.002 195.02-129.002 138.181-175.072 92.1035-231.903 92.1035Z" fill="#0986F7" fill-rule="evenodd" transform="matrix(1.00005 0 0 1 426.914 0)"/></g></g></g></g><path
            d="M611.451 368.325 611.451 503.988 899.71 503.988 899.71 368.325ZM1396.87 329.661C1370.65 374.43 1343.52 413.546 1315.48 447.009L1396.87 447.009ZM1504.71 327.626 1504.71 447.009 1588.82 447.009C1559.88 413.546 1531.84 373.751 1504.71 327.626ZM3755.63 285.57 4068.99 285.57 4068.99 392.066 3755.63 392.066ZM2353.89 236.054 2315.23 253.011 2315.23 383.926C2321.11 384.378 2329.7 384.604 2341 384.604 2347.33 384.604 2351.18 380.308 2352.53 371.716 2353.44 366.29 2353.89 321.069 2353.89 236.054ZM611.451 141.089 611.451 268.613 899.71 268.613 899.71 141.089ZM2640.11 125.488 2640.11 535.868 2704.55 535.868C2687.36 506.927 2667.24 480.925 2644.18 457.862 2688.95 439.774 2727.61 418.972 2760.16 395.457 2733.03 380.987 2705 367.42 2676.06 354.758L2730.51 286.863 2697.76 301.172C2690.08 268.613 2673.57 229.27 2648.25 183.145L2724.22 151.942C2751.35 196.259 2769.43 234.245 2778.48 265.899L2731.47 286.443 2751.47 294.685C2773.43 304.097 2799.84 316.434 2830.7 331.696 2851.05 308.633 2868.91 283.762 2884.28 257.081L2811.71 283.536C2806.29 247.811 2792.95 207.338 2771.69 162.117L2850.37 134.985C2870.27 173.422 2884.51 208.921 2893.1 241.48 2908.02 213.443 2920.23 183.597 2929.73 151.942L3025.36 175.683C2998.68 253.463 2962.74 320.39 2917.52 376.464 2960.02 400.432 2992.58 421.459 3015.19 439.548L2954.15 517.554C2933.8 499.466 2899.43 475.725 2851.05 446.331 2811.26 481.603 2766.49 511.449 2716.76 535.868L3037.57 535.868 3037.57 125.488ZM4267.48 78.6845 4376.68 78.6845C4361.31 154.656 4345.59 222.374 4329.54 281.84 4313.49 341.305 4299.13 389.805 4286.47 427.338 4273.81 464.872 4265.45 488.387 4261.38 497.883L4477.06 497.883C4470.73 466.68 4461.46 431.973 4449.25 393.761 4437.05 355.55 4422.12 315.19 4404.49 272.682L4515.72 272.682C4537.88 326.948 4556.98 382.117 4573.04 438.191 4589.09 494.265 4601.41 549.661 4610 604.378L4137.93 604.378 4137.93 503.309C4156.47 456.732 4172.75 413.546 4186.77 373.751 4200.79 333.957 4215.03 288.736 4229.5 238.088 4243.97 187.441 4256.63 134.306 4267.48 78.6845ZM3331.93 55.6216 3439.1 55.6216C3435.93 75.5191 3432.09 94.5118 3427.57 112.6 3423.05 130.689 3418.07 147.646 3412.65 163.474L3694.12 163.474 3694.12 272.004 3586.96 272.004C3579.72 337.575 3563.56 392.518 3538.46 436.834 3513.37 481.151 3485.45 515.858 3454.7 540.956 3423.95 566.053 3395.01 585.611 3367.88 599.63 3340.75 613.648 3318.48 623.258 3301.07 628.458 3283.66 633.659 3274.73 636.033 3274.28 635.581L3274.28 525.694C3275.19 526.146 3284.34 523.207 3301.75 516.876 3319.16 510.545 3340.3 498.561 3365.17 480.925 3390.04 463.289 3413.44 437.739 3435.37 404.275 3457.3 370.812 3472.11 326.722 3479.79 272.004L3366.52 272.004C3344.82 309.085 3322.44 338.818 3299.38 361.202 3276.32 383.587 3257.21 399.64 3242.06 409.363 3226.92 419.085 3218.89 423.946 3217.99 423.946L3217.99 299.815C3218.44 300.267 3223.41 296.197 3232.91 287.605 3242.4 279.013 3253.03 265.108 3264.79 245.889 3276.54 226.67 3288.98 201.346 3302.09 169.918 3315.2 138.489 3325.15 100.391 3331.93 55.6216ZM3648.68 40.6988 3695.48 40.6988 3695.48 138.376 3648.68 138.376ZM3575.43 40.6988 3622.23 40.6988 3622.23 138.376 3575.43 138.376ZM507 39.3423 1008.91 39.3423 1008.91 651.86 899.71 651.86 899.71 605.735 611.451 605.735 611.451 651.86 507 651.86ZM2539.73 28.4892 3142.7 28.4892 3142.7 658.643 3037.57 658.643 3037.57 632.189 2640.11 632.189 2640.11 658.643 2539.73 658.643ZM1895.39 10.853 1989.67 10.853 1989.67 158.047 2054.1 158.047 2054.1 253.011 1989.67 253.011 1989.67 396.136 2045.96 372.395 2068.34 461.254C1989.67 501.953 1916.41 537.903 1848.59 569.106L1807.89 468.037C1817.39 464.872 1832.65 459.332 1853.68 451.418 1874.7 443.505 1888.61 438.191 1895.39 435.478L1895.39 253.011 1819.42 253.011 1819.42 158.047 1895.39 158.047ZM2220.95 0 2315.23 0 2315.23 150.586 2349.82 135.663 2349.14 135.663 2365.42 125.488 2383.05 113.279 2453.59 138.376 2450.2 154.656C2450.2 272.682 2448.84 351.141 2446.13 390.031 2444.78 422.59 2433.25 444.07 2411.54 454.471 2395.26 463.063 2369.94 467.359 2335.58 467.359 2331.96 433.895 2325.18 406.537 2315.23 385.283L2315.23 494.491 2220.95 494.491 2220.95 294.389 2182.97 310.668 2182.97 510.771C2182.97 531.573 2185.57 544.687 2190.77 550.113 2195.97 555.54 2208.74 558.253 2229.09 558.253L2345.75 558.253C2363.38 558.253 2375.25 553.165 2381.36 542.991 2387.46 532.816 2392.1 510.997 2395.26 477.533 2420.58 494.717 2449.75 506.701 2482.76 513.484 2476.88 563.679 2464.78 598.612 2446.47 618.284 2428.16 637.955 2397.75 647.79 2355.25 647.79L2219.59 647.79C2167.6 647.79 2132.55 638.407 2114.47 619.64 2096.38 600.874 2087.33 564.584 2087.33 510.771L2087.33 352.724 2059.53 364.933 2022.22 276.074 2087.33 248.263 2087.33 69.188 2182.97 69.188 2182.97 207.564 2220.95 191.285ZM1396.87 0 1504.71 0 1504.71 128.88 1761.77 128.88 1761.77 231.305 1564.4 231.305C1591.53 280.596 1625.1 326.043 1665.12 367.646 1705.14 409.25 1748.21 442.713 1794.33 468.037 1781.67 478.438 1767.65 492.682 1752.28 510.771 1736.9 528.859 1724.69 545.139 1715.65 559.609 1676.31 533.833 1640.82 503.988 1609.16 470.072L1609.16 549.435 1504.71 549.435 1504.71 660 1396.87 660 1396.87 549.435 1286.99 549.435 1286.99 478.212C1256.25 510.319 1222.79 538.355 1186.61 562.323 1163.55 529.311 1138.91 501.274 1112.68 478.212 1158.35 452.436 1200.74 417.729 1239.85 374.09 1278.97 330.452 1311.86 282.857 1338.54 231.305L1141.85 231.305 1141.85 128.88 1396.87 128.88Z"
            fill="#0986F7" fill-rule="evenodd" /></g></svg>