<svg width="2495" height="192" xmlns="http://www.w3.org/2000/svg" xmlns:xlink="http://www.w3.org/1999/xlink" overflow="hidden"><defs><clipPath id="clip0"><rect x="0" y="0" width="2495" height="192"/></clipPath><clipPath id="clip1"><rect x="0" y="0" width="113" height="192"/></clipPath><clipPath id="clip2"><rect x="0" y="0" width="113" height="192"/></clipPath><clipPath id="clip3"><rect x="0" y="0" width="113" height="192"/></clipPath><clipPath id="clip4"><rect x="0" y="0" width="113" height="192"/></clipPath></defs><g clip-path="url(#clip0)"><path d="M2048.29 40.1921 2029.08 115.968 2068.01 115.968 2048.8 40.1921ZM1447.58 40.1921 1428.37 115.968 1467.3 115.968 1448.09 40.1921ZM467.265 35.8401C438.582 35.7974 424.241 55.8508 424.241 96 424.241 136.149 438.582 156.203 467.265 156.16 495.947 156.203 510.288 136.149 510.288 96 510.288 55.8508 495.947 35.7974 467.265 35.8401ZM966.823 34.0481C961.701 34.0481 956.835 34.5601 952.225 35.5842L952.225 156.416C956.835 157.44 961.701 157.952 966.823 157.952 984.061 158.128 996.833 153.104 1005.14 142.88 1013.45 132.656 1017.58 116.176 1017.53 93.44 1017.54 73.0454 1013.35 58.0268 1004.95 48.3841 996.545 38.7415 983.837 33.9629 966.823 34.0481ZM1615.7 33.0242C1610.06 33.0242 1604.69 33.5362 1599.56 34.5601L1599.56 94.72C1604.94 95.5308 1610.32 95.9574 1615.7 96 1628.06 95.9254 1637.58 93.0667 1644.25 87.4241 1650.92 81.7814 1654.29 73.8027 1654.37 63.4881 1654.41 43.2215 1641.52 33.0669 1615.7 33.0242ZM640.859 33.0242C634.712 33.0242 629.334 33.5362 624.725 34.5601L624.725 88.3201 639.066 88.3201C651.022 88.2615 660.146 85.7548 666.436 80.8001 672.726 75.8455 675.895 68.7947 675.943 59.6482 675.901 41.9415 664.206 33.0669 640.859 33.0242ZM2375.66 2.56014 2495 2.56014 2495 37.6321 2419.2 37.6321 2419.2 75.7761 2489.88 75.7761 2489.88 108.8 2419.2 108.8 2419.2 154.368 2495 154.368 2495 189.44 2375.66 189.44ZM2157.51 2.56014 2201.3 2.56014 2246.37 112.64 2246.88 112.64 2291.96 2.56014 2336.77 2.56014 2336.77 189.44 2295.54 189.44 2295.54 75.0081 2295.03 75.0081 2264.55 146.688 2228.7 146.688 2198.23 75.0081 2197.71 75.0081 2197.71 189.44 2157.51 189.44ZM2026.01 2.56014 2072.11 2.56014 2132.8 189.44 2086.45 189.44 2076.2 148.992 2020.89 148.992 2010.64 189.44 1965.32 189.44ZM1425.3 2.56014 1471.4 2.56014 1532.09 189.44 1485.74 189.44 1475.49 148.992 1420.18 148.992 1409.93 189.44 1364.61 189.44ZM1160.54 2.56014 1204.33 2.56014 1249.4 112.64 1249.91 112.64 1294.99 2.56014 1339.8 2.56014 1339.8 189.44 1298.57 189.44 1298.57 75.0081 1298.06 75.0081 1267.58 146.688 1231.73 146.688 1201.26 75.0081 1200.74 75.0081 1200.74 189.44 1160.54 189.44ZM753.74 2.56014 798.556 2.56014 798.556 153.344 877.689 153.344 877.689 189.44 753.74 189.44ZM147 2.56014 191.048 2.56014 210.511 145.152 211.023 145.152 228.694 2.56014 281.449 2.56014 299.119 145.152 299.631 145.152 319.094 2.56014 362.118 2.56014 324.985 189.44 274.278 189.44 254.815 46.8481 254.303 46.8481 234.84 189.44 184.134 189.44ZM1881.05 0.000110603C1899.49 0.0428035 1916.39 2.00546 1931.76 5.88819L1931.76 41.7281C1915.15 36.9068 1899.96 34.5174 1886.17 34.5601 1847.97 34.5601 1828.85 55.0401 1828.81 96 1828.89 116.48 1833.46 131.84 1842.54 142.08 1851.61 152.32 1864.71 157.44 1881.82 157.44 1888.73 157.483 1894.88 156.629 1900.26 154.88L1900.26 108.8 1859.54 108.8 1859.54 75.7761 1941.49 75.7761 1941.49 181.248C1922.28 188.416 1901.54 192 1879.26 192 1850.53 192 1827.57 183.552 1810.37 166.656 1793.17 149.504 1784.55 125.952 1784.5 96 1784.5 65.7921 1792.95 42.2401 1809.86 25.3441 1826.8 8.44821 1850.53 0.000110603 1881.05 0.000110603ZM1613.14 0.000110603C1667.73-0.0424717 1695.04 20.2668 1695.09 60.9281 1695.03 82.9868 1688.67 99.6694 1676.01 110.976 1663.34 122.283 1644.69 127.957 1620.05 128 1613.86 128.043 1607.03 127.701 1599.56 126.976L1599.56 189.44 1556.8 189.44 1556.8 3.84015C1574.42 1.28012 1593.2 0.000110603 1613.14 0.000110603ZM963.493 0.000110603C994.251 0.165463 1017.82 8.28286 1034.21 24.3522 1050.59 40.4214 1058.86 63.4508 1059.02 93.44 1058.86 125.883 1050.59 150.405 1034.21 167.008 1017.82 183.611 994.251 191.941 963.493 192 944.542 192 926.616 190.72 909.714 188.16L909.714 3.84015C926.616 1.28012 944.542 0.000110603 963.493 0.000110603ZM643.42 0.000110603C668.997 0.0908053 688.076 4.9015 700.656 14.4322 713.237 23.9628 719.511 37.6695 719.479 55.5521 719.324 67.1255 715.985 77.3867 709.46 86.3361 702.934 95.2854 694.153 101.835 683.114 105.984L683.114 106.496C692.035 111.403 699.291 121.557 704.882 136.96L724.601 189.44 679.785 189.44 662.114 138.752C659.858 131.712 656.944 126.848 653.375 124.16 649.806 121.472 644.524 120.192 637.529 120.32L624.725 120.32 624.725 189.44 581.957 189.44 581.957 3.84015C600.652 1.28012 621.14 0.000110603 643.42 0.000110603ZM467.265 0.000110603C480.72-0.00519836 492.799 2.1175 503.502 6.36821 514.204 10.6188 523.466 17.0295 531.288 25.6001 546.952 42.5388 554.806 66.0054 554.848 96 554.806 125.952 546.952 149.504 531.288 166.656 523.466 175.104 514.204 181.44 503.502 185.664 492.799 189.888 480.72 192 467.265 192 453.809 192 441.73 189.888 431.027 185.664 420.325 181.44 411.063 175.104 403.241 166.656 387.577 149.504 379.724 125.952 379.681 96 379.724 66.0054 387.577 42.5388 403.241 25.6001 411.063 17.0295 420.325 10.6188 431.027 6.36821 441.73 2.1175 453.809-0.00519836 467.265 0.000110603Z" fill="#0986F7" fill-rule="evenodd"/><g clip-path="url(#clip1)"><g clip-path="url(#clip2)"><g clip-path="url(#clip3)"><g clip-path="url(#clip4)"><path d="M-67.1955 0C-35.9914 0-10.6955 25.2997-10.6955 56.5084-10.6955 69.1869-14.8703 80.8903-21.92 90.3183L-22.467 91.0144-67.1955 191.24-111.924 91.0142-112.471 90.3183C-119.521 80.8903-123.695 69.1869-123.695 56.5084-123.695 25.2997-98.3995 0-67.1955 0ZM-67.1955 26.6876C-83.6625 26.6876-97.0118 40.0389-97.0118 56.5084-97.0118 72.978-83.6625 86.3292-67.1955 86.3292-50.7284 86.3292-37.3792 72.978-37.3792 56.5084-37.3792 40.0389-50.7284 26.6876-67.1955 26.6876Z" fill="#0986F7" fill-rule="evenodd" transform="matrix(1 0 0 1.00398 123.695 0)"/></g></g></g></g></g></svg>